<?xml version="1.0" encoding="UTF-8" standalone="no"?>
<svg
   xmlns:dc="http://purl.org/dc/elements/1.1/"
   xmlns:cc="http://creativecommons.org/ns#"
   xmlns:rdf="http://www.w3.org/1999/02/22-rdf-syntax-ns#"
   xmlns:svg="http://www.w3.org/2000/svg"
   xmlns="http://www.w3.org/2000/svg"
   xmlns:sodipodi="http://sodipodi.sourceforge.net/DTD/sodipodi-0.dtd"
   xmlns:inkscape="http://www.inkscape.org/namespaces/inkscape"
   width="92"
   height="32"
   viewBox="0 0 92 32"
   fill="none"
   version="1.1"
   id="svg940"
   sodipodi:docname="logo.svg"
   inkscape:version="1.0.1 (c497b03c, 2020-09-10)">
  <metadata
     id="metadata946">
    <rdf:RDF>
      <cc:Work
         rdf:about="">
        <dc:format>image/svg+xml</dc:format>
        <dc:type
           rdf:resource="http://purl.org/dc/dcmitype/StillImage" />
      </cc:Work>
    </rdf:RDF>
  </metadata>
  <defs
     id="defs944" />
  <sodipodi:namedview
     pagecolor="#ffffff"
     bordercolor="#666666"
     borderopacity="1"
     objecttolerance="10"
     gridtolerance="10"
     guidetolerance="10"
     inkscape:pageopacity="0"
     inkscape:pageshadow="2"
     inkscape:window-width="1597"
     inkscape:window-height="743"
     id="namedview942"
     showgrid="false"
     inkscape:zoom="7.7391304"
     inkscape:cx="45.809616"
     inkscape:cy="16"
     inkscape:window-x="0"
     inkscape:window-y="25"
     inkscape:window-maximized="0"
     inkscape:current-layer="svg940" />
  <path
     d="M10.987 31.5841C4.92849 31.5841 0 26.626 0 20.5323C0 14.4385 4.92899 9.48041 10.987 9.48041C17.045 9.48041 21.974 14.4385 21.974 20.5323C21.974 26.626 17.0459 31.5841 10.987 31.5841ZM10.987 10.536C5.50765 10.536 1.04938 15.0196 1.04938 20.5318C1.04938 26.044 5.50765 30.5275 10.987 30.5275C16.4663 30.5275 20.9251 26.0429 20.9251 20.5308C20.9251 15.0186 16.4673 10.536 10.987 10.536Z"
     fill="#2196F3"
     id="path922"
     style="fill:#000080" />
  <path
     d="M18.96 21.0225C18.6182 19.7483 15.4851 19.6108 13.6203 20.0779C12.6437 20.3235 11.6456 20.6428 10.6162 20.8265C11.3697 21.4989 12.1788 22.135 13.34 22.2932C16.2211 22.6842 18.0112 21.775 18.96 21.0225Z"
     fill="#2196F3"
     id="path924"
     style="fill:#8787de" />
  <path
     d="M13.34 22.2932C12.1764 22.135 11.3697 21.4989 10.6162 20.8265C9.45013 19.7857 8.41298 18.6579 6.37723 19.0823C3.14069 19.7572 2.71488 23.6081 5.21404 26.0828C6.28706 27.2131 7.66455 28.0041 9.17779 28.3586C10.691 28.7132 12.2742 28.616 13.7333 28.079C15.1924 27.5419 16.4641 26.5883 17.3925 25.3352C18.3209 24.0819 18.8656 22.5835 18.96 21.0235C18.0112 21.775 16.221 22.6842 13.34 22.2932Z"
     fill="#673AB7"
     id="path926" />
  <path
     d="M15.034 13.9586C14.6301 14.8295 18.2304 15.7957 18.6611 18.6879C18.8687 15.8409 15.5335 12.882 15.034 13.9586Z"
     fill="#2196F3"
     id="path928"
     style="fill:#afafe9" />
  <path
     d="M7.46619 17.5935C8.11524 17.3231 8.42345 16.5746 8.15463 15.9217C7.8858 15.2688 7.14167 14.9587 6.49262 15.2292C5.84357 15.4996 5.53536 16.2481 5.80418 16.9011C6.07306 17.5539 6.81714 17.8639 7.46619 17.5935Z"
     fill="#673AB7"
     id="path930" />
  <path
     d="M10.3549 14.08C10.6585 13.7746 10.6585 13.2795 10.3549 12.9741C10.0513 12.6687 9.55909 12.6687 9.25551 12.9741C8.95194 13.2795 8.95194 13.7746 9.25551 14.08C9.55909 14.3854 10.0513 14.3854 10.3549 14.08Z"
     fill="#2196F3"
     id="path932"
     style="fill:#8787de" />
  <text
     xml:space="preserve"
     style="font-style:normal;font-weight:normal;font-size:12.4542px;line-height:1.25;font-family:sans-serif;fill:#000000;fill-opacity:1;stroke:none;stroke-width:0.311354"
     x="24.715582"
     y="20.395519"
     id="text950"
     transform="scale(0.98614301,1.0140517)"><tspan
       sodipodi:role="line"
       id="tspan948"
       x="24.715582"
       y="20.395519"
       style="fill:#330080;stroke-width:0.311354">apivalidator</tspan></text>
  <text
     xml:space="preserve"
     style="font-style:normal;font-weight:normal;font-size:5.78946px;line-height:1.25;font-family:sans-serif;fill:#000000;fill-opacity:1;stroke:none;stroke-width:0.144736"
     x="30.28553"
     y="28.171587"
     id="text950-7"
     transform="scale(1.0181323,0.98219062)"><tspan
       sodipodi:role="line"
       id="tspan948-2"
       x="30.28553"
       y="28.171587"
       style="fill:#93a7ac;stroke-width:0.144736">powered by 42Crunch</tspan></text>
</svg>
